<svg id="Layer_2" data-name="Layer 2" xmlns="http://www.w3.org/2000/svg" viewBox="0 0 512 512"><defs><style>.cls-1{fill:#89aae6;}.cls-1,.cls-4,.cls-5{stroke:#576490;}.cls-1,.cls-4,.cls-5,.cls-6{stroke-miterlimit:10;stroke-width:10px;}.cls-2,.cls-4{fill:#fff;}.cls-3{fill:#576490;}.cls-5,.cls-6{fill:none;}.cls-6{stroke:#fff;}</style></defs><title>Icon</title><path class="cls-1" d="M369.05,447.13,366,458.83A14.16,14.16,0,0,1,351.83,473H159.17A14.16,14.16,0,0,1,145,458.83l-4.47-22.93A355.8,355.8,0,0,1,137.58,316q2.29-15.57,5.52-31l1.29-6.13A219.77,219.77,0,0,1,164,219.93,122.66,122.66,0,0,0,177,165a209.72,209.72,0,0,1,16.94-82.55A69.7,69.7,0,0,1,258,40.22c1.34,0,2.67,0,4,.12a69.71,69.71,0,0,1,60.06,42.12A209.72,209.72,0,0,1,339,165a122.86,122.86,0,0,0,13,54.92l.88,1.75a219.89,219.89,0,0,1,18.93,55.17l2.08,10.42c.07.33.14.67.2,1q.63,3.2,1.2,6.39A356.34,356.34,0,0,1,369.05,447.13Z"/><circle class="cls-2" cx="258" cy="122" r="59"/><path class="cls-3" d="M258,68a54,54,0,1,1-54,54,54,54,0,0,1,54-54m0-10a64,64,0,1,0,64,64,64.07,64.07,0,0,0-64-64Z"/><path class="cls-4" d="M233.86,445.5h49.28c39.81,0,70.92-50.38,67-90l-5.38-37.82c-3.18-31.75-24.7-106.67-55-116.76h0a98.84,98.84,0,0,0-62.5,0h0c-30.27,10.09-51.79,85-55,116.76L166.9,355.5C162.94,395.12,194.05,445.5,233.86,445.5Z"/><path class="cls-5" d="M270,122c0-10,6-18,13.5-18s13.5,8,13.5,18"/><path class="cls-5" d="M219,122c0-10,6-18,13.5-18s13.5,8,13.5,18"/><path class="cls-5" d="M374.5,302.5c0,9.95-52.33,18-117,18s-117-8.05-117-18"/><path class="cls-6" d="M375.5,293.5c0,9.95-52.33,18-117,18s-117-8.05-117-18"/><path class="cls-5" d="M372,283.5c0,9.95-50.76,18-113.5,18S145,293.45,145,283.5"/></svg>