<?xml version="1.0" standalone="no"?>
<!DOCTYPE svg PUBLIC "-//W3C//DTD SVG 20010904//EN"
 "http://www.w3.org/TR/2001/REC-SVG-20010904/DTD/svg10.dtd">
<svg version="1.0" xmlns="http://www.w3.org/2000/svg"
 width="512.000000pt" height="512.000000pt" viewBox="0 0 512.000000 512.000000"
 preserveAspectRatio="xMidYMid meet">
<metadata>
Created by potrace 1.11, written by Peter Selinger 2001-2013
</metadata>
<g transform="translate(0.000000,512.000000) scale(0.100000,-0.100000)"
fill="#000000" stroke="none">
<path d="M2479 4761 c-165 -23 -306 -96 -429 -220 -97 -98 -146 -183 -204
-350 -80 -229 -112 -406 -126 -698 -13 -272 -33 -352 -142 -588 -81 -175 -140
-356 -181 -555 l-34 -165 49 4 c34 2 64 -3 98 -18 78 -34 212 -61 415 -83 168
-19 245 -22 660 -22 415 0 492 3 660 22 202 22 340 50 413 82 25 11 66 20 93
20 27 0 49 2 49 5 0 2 -14 70 -31 151 -39 191 -100 374 -182 549 -115 245
-133 322 -147 598 -14 292 -46 469 -126 698 -59 171 -106 251 -209 354 -101
101 -198 159 -322 194 -83 23 -224 33 -304 22z m270 -350 c160 -55 285 -180
342 -342 18 -51 23 -85 23 -169 0 -84 -5 -118 -23 -169 -57 -162 -180 -285
-342 -342 -91 -33 -247 -33 -338 0 -458 162 -498 778 -65 995 119 60 276 70
403 27z m-13 -1312 c162 -29 228 -66 312 -175 62 -80 156 -266 208 -409 35
-99 96 -306 91 -311 -1 -1 -38 -7 -82 -13 -352 -46 -1008 -46 -1360 0 -44 6
-81 12 -82 13 -2 2 10 50 26 107 96 341 246 627 374 715 102 70 341 104 513
73z"/>
<path d="M2253 4109 c-46 -23 -86 -75 -102 -134 -19 -71 -17 -75 38 -75 48 0
49 1 55 35 9 45 51 95 81 95 30 0 72 -50 81 -95 6 -34 7 -35 55 -35 55 0 57 4
38 75 -16 60 -56 112 -103 135 -53 25 -90 25 -143 -1z"/>
<path d="M2763 4109 c-46 -23 -86 -75 -102 -134 -19 -71 -17 -75 38 -75 48 0
49 1 55 35 9 45 51 95 81 95 30 0 72 -50 81 -95 6 -34 7 -35 55 -35 55 0 57 4
38 75 -16 60 -56 112 -103 135 -53 25 -90 25 -143 -1z"/>
<path d="M1356 2144 c-65 -305 -83 -792 -41 -1124 15 -125 77 -472 95 -542 14
-50 55 -97 105 -119 38 -18 91 -19 1038 -19 878 0 1002 2 1035 15 43 18 78 50
97 85 15 28 86 322 110 450 68 377 78 776 29 1147 l-17 122 -19 -25 c-73 -92
-392 -151 -942 -174 -187 -8 -333 -8 -520 0 -579 24 -902 88 -952 189 l-12 23
-6 -28z m2048 -251 c4 -24 14 -92 51 -362 2 -18 0 -70 -6 -115 -34 -280 -201
-541 -412 -648 -99 -49 -163 -58 -452 -58 -285 0 -355 9 -448 55 -213 107
-381 370 -416 651 -8 62 -6 107 5 195 25 191 40 289 47 295 3 3 52 1 109 -5
439 -48 1235 -39 1510 18 3 0 9 -11 12 -26z"/>
</g>
</svg>
