<svg id="Layer_2" data-name="Layer 2" xmlns="http://www.w3.org/2000/svg" viewBox="0 0 2048 512"><defs><style>.cls-1{font-size:237px;font-family:Raleway-Bold, Raleway;font-weight:700;}.cls-1,.cls-9{fill:#576490;}.cls-2{letter-spacing:-0.07em;}.cls-3{letter-spacing:-0.02em;}.cls-4{letter-spacing:-0.05em;}.cls-5{letter-spacing:0em;}.cls-6{letter-spacing:-0.03em;}.cls-7{fill:#89aae6;}.cls-10,.cls-11,.cls-7{stroke:#576490;}.cls-10,.cls-11,.cls-12,.cls-7{stroke-miterlimit:10;stroke-width:10px;}.cls-10,.cls-8{fill:#fff;}.cls-11,.cls-12{fill:none;}.cls-12{stroke:#fff;}</style></defs><title>Logo</title><text class="cls-1" transform="translate(405 347.42)">M<tspan class="cls-2" x="205" y="0">A</tspan><tspan x="347.68" y="0">T</tspan><tspan class="cls-3" x="494.38" y="0">R</tspan><tspan class="cls-4" x="646.53" y="0">Y</tspan><tspan class="cls-5" x="791.58" y="0">OSHK</tspan><tspan class="cls-6" x="1451.14" y="0">A</tspan></text><path class="cls-7" d="M307,454.83l3.05-11.71a356.12,356.12,0,0,0,5-158.84l-.21-1-2.08-10.41a219.5,219.5,0,0,0-18.93-55.17l-.88-1.76A122.85,122.85,0,0,1,280,161h0a209.56,209.56,0,0,0-16.94-82.55h0a69.73,69.73,0,0,0-32.89-34.88h0a69.7,69.7,0,0,0-62.34,0h0A69.67,69.67,0,0,0,135,78.46h0A209.57,209.57,0,0,0,118,161h0a122.85,122.85,0,0,1-13,54.91h0a219.52,219.52,0,0,0-19.65,59L84.1,281q-3.22,15.42-5.52,31a355.8,355.8,0,0,0,3,119.9L86,454.83A14.17,14.17,0,0,0,100.17,469H292.83A14.17,14.17,0,0,0,307,454.83Z"/><circle class="cls-8" cx="199" cy="118" r="59"/><path class="cls-9" d="M199,64a54,54,0,1,1-54,54,54,54,0,0,1,54-54m0-10a64,64,0,1,0,64,64,64.07,64.07,0,0,0-64-64Z"/><path class="cls-10" d="M174.87,441.5h49.27c39.81,0,70.92-50.38,67-90l-5.38-37.82c-3.18-31.75-24.7-106.68-55-116.77h0a98.84,98.84,0,0,0-62.5,0h0c-30.27,10.09-51.79,85-55,116.77L107.9,351.5C103.94,391.12,135.05,441.5,174.87,441.5Z"/><path class="cls-11" d="M211,118c0-10,6-18,13.5-18s13.5,8,13.5,18"/><path class="cls-11" d="M160,118c0-10,6-18,13.5-18s13.5,8,13.5,18"/><path class="cls-11" d="M315.5,298.5c0,9.95-52.33,18-117,18s-117-8.05-117-18"/><path class="cls-12" d="M316.5,289.5c0,9.95-52.33,18-117,18s-117-8.05-117-18"/><path class="cls-11" d="M313,279.5c0,9.95-50.76,18-113.5,18S86,289.45,86,279.5"/></svg>